/* XPM */
static char *_33f44974c0a4152c407760c82962711ldAz1c9Uue1WvBqP[] = {
/* columns rows colors chars-per-pixel */
"59 64 204 2 ",
"   c None",
".  c #010204",
"X  c #0D0002",
"o  c #00030D",
"O  c #0A000B",
"+  c #000A0C",
"@  c #140004",
"#  c #1E0005",
"$  c #14000D",
"%  c #1B000B",
"&  c #010311",
"*  c #000B14",
"=  c #1C0819",
"-  c #0B1A1C",
";  c #001E1C",
":  c #171A1C",
">  c #240003",
",  c #24000B",
"<  c #2C0006",
"1  c #340402",
"2  c #3A090E",
"3  c #270013",
"4  c #340819",
"5  c #3A141A",
"6  c #28151B",
"7  c #0C201E",
"8  c #1E0B21",
"9  c #041C23",
"0  c #0C1B24",
"q  c #0B1C2A",
"w  c #0B1826",
"e  c #131C25",
"r  c #131C2A",
"t  c #1D1D2D",
"y  c #151423",
"u  c #2D1424",
"i  c #2B172D",
"p  c #391529",
"a  c #0E232C",
"s  c #0D2325",
"d  c #14222C",
"f  c #1A212E",
"g  c #152525",
"h  c #132332",
"j  c #132B35",
"k  c #292737",
"l  c #3E313B",
"z  c #480008",
"x  c #470C1E",
"c  c #580A18",
"v  c #610713",
"b  c #410424",
"n  c #440C23",
"m  c #4E0623",
"M  c #5C0B2C",
"N  c #570528",
"B  c #4E1029",
"V  c #5C1627",
"C  c #471B34",
"Z  c #5A1035",
"A  c #620027",
"S  c #730024",
"D  c #671434",
"F  c #690E37",
"G  c #4A2B37",
"H  c #42303A",
"J  c #78202E",
"K  c #153B4B",
"L  c #3A2B44",
"P  c #353946",
"I  c #273745",
"U  c #730448",
"Y  c #48274A",
"T  c #443043",
"R  c #483C46",
"E  c #602F4F",
"W  c #7F274F",
"Q  c #7C275A",
"!  c #712F57",
"~  c #793659",
"^  c #234A58",
"/  c #3B6371",
"(  c #564D52",
")  c #5D616C",
"_  c #5F6B78",
"`  c #62626A",
"'  c #6B706F",
"]  c #6A6877",
"[  c #746574",
"{  c #766D67",
"}  c #8D1D43",
"|  c #9C1F49",
" . c #85314B",
".. c #8F3153",
"X. c #983859",
"o. c #AC395B",
"O. c #862262",
"+. c #8D3D60",
"@. c #B93865",
"#. c #D3265D",
"$. c #DC2956",
"%. c #D93459",
"&. c #E92B58",
"*. c #E6365B",
"=. c #F5295C",
"-. c #DD2969",
";. c #CC376A",
":. c #D53764",
">. c #CD3F73",
",. c #DE3A75",
"<. c #E92662",
"1. c #E42A64",
"2. c #E42B6D",
"3. c #EA2D68",
"4. c #F62869",
"5. c #E33266",
"6. c #E63769",
"7. c #E12D72",
"8. c #EA2D77",
"9. c #E53274",
"0. c #EA307C",
"q. c #F2377D",
"w. c #F53367",
"e. c #93455F",
"r. c #B84572",
"t. c #A85679",
"y. c #AF4A6C",
"u. c #CE4569",
"i. c #DB416B",
"p. c #C94272",
"a. c #D54379",
"s. c #C75479",
"d. c #E4406B",
"f. c #737581",
"g. c #697987",
"h. c #FA2F83",
"j. c #EE3883",
"k. c #F83C8A",
"l. c #FA3397",
"z. c #F43D93",
"x. c #FC3A95",
"c. c #FD3B9A",
"v. c #F93A99",
"b. c #FF3AA0",
"n. c #866E84",
"m. c #BA658E",
"M. c #CD4F8E",
"N. c #DB4C87",
"B. c #CC578C",
"V. c #D3588D",
"C. c #D04C97",
"Z. c #D5599A",
"A. c #C94E96",
"S. c #EB4989",
"D. c #FE428C",
"F. c #F44485",
"G. c #E64F99",
"H. c #EF4B99",
"J. c #F34290",
"K. c #FD4294",
"L. c #FD449D",
"P. c #F44C98",
"I. c #E7539B",
"U. c #FE519D",
"Y. c #F45D96",
"T. c #CA648E",
"R. c #EB6397",
"E. c #FF44A4",
"W. c #FD49A7",
"Q. c #F35FA3",
"!. c #CD6AA2",
"~. c #6B838D",
"^. c #71858C",
"/. c #728D96",
"(. c #77929D",
"). c #7995A0",
"_. c #80939A",
"`. c #9B9B99",
"'. c #8E9FB1",
"]. c #9197A3",
"[. c #8AA1A5",
"{. c #85A2AC",
"}. c #8CA4AB",
"|. c #92AAAD",
" X c #94A2A3",
".X c #8EACB4",
"XX c #8EA5B5",
"oX c #90A9B2",
"OX c #91AEB8",
"+X c #96B3BA",
"@X c #A2A0AE",
"#X c #B6B7C9",
"$X c #AFC1CA",
"%X c #B9C9D2",
"&X c #BDD1D0",
"*X c #BAD7D9",
"=X c #A3D5D1",
"-X c #BFE0EF",
";X c #CFD2E1",
":X c #C0E6ED",
">X c #D1E1EE",
",X c #D9EAFE",
"<X c #C2E6F6",
"1X c #E0EEF9",
/* pixels */
"                                                                                                                      ",
"                                                                                                                      ",
"        ] ` R G u p u i                                                                                               ",
"    P $ , n m D ..X. .Z b 3 i                                                                                         ",
"    X  .s.R.N.a.Q.G.I.G.I.B.D #                                                                                       ",
"  { # o.9.F.U.J.z.E.v.E.z.W.N.+.4                                                                                     ",
"  ( , @.9.9.k.k.W.L.l.W.E.b.H.Z.N ^                                                                                   ",
"  H n p.,.-.k.D.k.x.W.b.l.W.W.C.U K                                                                                   ",
"  u B >.-.9.7.j.J.c.x.E.c.v.W.A.O.K                                                                                   ",
"  5 V :.<.3.7.7.j.K.c.x.E.E.G.!.3 /                                                                                   ",
"  1 v *.4.&.3.-.0.h.L.x.J.S.V.~ @                                                                                     ",
"  2 c 5.=.&.6.&.4.8.q.S.V.B.V X '                                                                                     ",
"  G c u.&.%.%.&.&.w.%.z 2 % $ )                                                                                       ",
"    4 @.:.%.%.*.&.$.u.> X O ] ,X                                                                                      ",
"    @ | :.5.-.&.&.6.} % + o k ].;X                                                                                    ",
"    $ S -.1.6.<.3.;.A O [.0 + e @X                                                                                    ",
"    (.O x X.r.y.e.G o ).:X%X0 . 6 [.                                                                                  ",
"      ] % x z c > $         *X: . - }.                                                                                ",
"          [ H H               *X; o s +X                                                                              ",
"                                =Xf o 9 OX                                                                            ",
"                                    d & q {.                                                                          ",
"                                      h + d .X                                                                        ",
"                                        r & w .X                                                                      ",
"                                          t o e [.                                                                    ",
"                                            y & d [.                                                                  ",
"                                              y o 0 }.                                                                ",
"                                                t & r +X                                                              ",
"                                                  t & 9 OX                                                            ",
"                                                    h & q {.                                                          ",
"                                                      h & h oX                                                        ",
"                                                        r o 0 |.                                                      ",
"                                                          h o 0 }.                                                    ",
"                                                            s + d `.                                                  ",
"                                                              0 o :  X                                                ",
"                                                                a . g +X                                              ",
"                                                                  d o 9 .X                                            ",
"                                                                    h + q {.                                          ",
"                                                                      h + a |.                                        ",
"                                                                        a . - |.                                      ",
"                                                                          g . 7 [.                                    ",
"                                                                          &X- + s oX:X                                ",
"                                                                            &X- o w XX<X                              ",
"                                                                              &Xr & r '.,X,X                          ",
"                                                                                $Xw & k L L Y Y Y                     ",
"                                                                                  %Xy $ E ! ~ Q O.C $                 ",
"                                                                                  >XT C m.B.V.M.Z.T.t., i             ",
"                                                                                    T m r.N.H.H.H.F.Y.r.< 8           ",
"                                                                                    T A @.,.0.L.J.D.q.I.t.= r         ",
"                                                                                    k A ;.5.d.c < * . + + & & j       ",
"                                                                                    P N u.#.i.J 1 ^.^._.^.^./.~.      ",
"                                                                                    ^ x r.i.u.c 2                     ",
"                                                                                    I p N r.s.V x                     ",
"                                                                                      [ , D t.x 6                     ",
"                                                                                      #Xn.% C G u                     ",
"                                                                                        %X] O = 6                     ",
"                                                                                            _ & t                     ",
"                                                                                              g.w                     ",
"                                                                                                                      ",
"                                                                                                                      ",
"                                                                                                                      ",
"                                                                                                                      ",
"                                                                                                                      ",
"                                                                                                                      ",
"                                                                                                                      "
};
